<svg width="16" height="15" viewBox="0 0 16 15" fill="none" xmlns="http://www.w3.org/2000/svg">
<path fill-rule="evenodd" clip-rule="evenodd" d="M8.21249 0.0314941C5.1569 0.0314941 2.53381 1.85244 1.43392 4.43793C1.3415 4.64336 1.37075 4.88122 1.51039 5.05978C1.65002 5.23834 1.87823 5.32971 2.107 5.29863C2.33578 5.26756 2.52936 5.1189 2.6131 4.91C3.52122 2.77533 5.67847 1.26941 8.21249 1.26941C11.5667 1.26941 14.2722 3.89467 14.2722 7.14948C14.2722 10.4043 11.5667 13.0296 8.21249 13.0296C5.67882 13.0296 3.5212 11.5242 2.6131 9.38957C2.52936 9.18066 2.33578 9.03201 2.107 9.00094C1.87823 8.96986 1.65002 9.06122 1.51039 9.23979C1.37075 9.41835 1.3415 9.65621 1.43392 9.86164C2.53383 12.4472 5.15719 14.2675 8.21249 14.2675C12.2562 14.2675 15.5479 11.0733 15.5479 7.14948C15.5479 3.22565 12.2562 0.0314941 8.21249 0.0314941ZM8.83286 4.358C8.5733 4.35807 8.33966 4.51073 8.24199 4.74409C8.14432 4.97744 8.20209 5.24495 8.3881 5.42062L9.53178 6.53039H1.50364C1.2736 6.52723 1.05963 6.64451 0.943665 6.83731C0.827697 7.03012 0.827697 7.26857 0.943665 7.46138C1.05963 7.65418 1.2736 7.77146 1.50364 7.7683H9.53178L8.3881 8.87807C8.22147 9.03331 8.15435 9.26384 8.21262 9.48075C8.2709 9.69765 8.44546 9.86704 8.66899 9.92359C8.89253 9.98013 9.1301 9.915 9.29008 9.75331L11.5226 7.58697C11.7716 7.34524 11.7716 6.95344 11.5226 6.71172L9.29008 4.54538C9.16999 4.42559 9.00509 4.35801 8.83286 4.358Z" fill="#EB585C"/>
</svg>
